<?xml version="1.0" encoding="UTF-8" standalone="no"?>
<!DOCTYPE svg PUBLIC "-//W3C//DTD SVG 1.1//EN" "http://www.w3.org/Graphics/SVG/1.1/DTD/svg11.dtd">
<svg width="100%" height="100%" viewBox="0 0 1000 1000" version="1.1" xmlns="http://www.w3.org/2000/svg" xmlns:xlink="http://www.w3.org/1999/xlink" xml:space="preserve" xmlns:serif="http://www.serif.com/" style="fill-rule:evenodd;clip-rule:evenodd;stroke-linejoin:round;stroke-miterlimit:2;">
    <g transform="matrix(1.17429,0,0,1.17429,-113.924,-129.102)">
        <g id="교표" transform="matrix(3.63885,0,0,3.63885,765.075,529.708)">
            <path d="M0,12.402C-18.337,-34.465 -1.228,-73.194 -1.228,-73.194L-22.343,-96.051L-110.748,-96.051L-131.863,-73.194C-131.863,-73.194 -114.754,-34.465 -133.091,12.402C-136.229,20.427 -142.86,43.285 -130.636,62.981C-116.653,85.511 -83.004,99.943 -66.554,108.453L-66.546,108.241L-66.538,108.453C-50.088,99.943 -16.438,85.511 -2.456,62.981C9.769,43.285 3.14,20.427 0,12.402" style="fill:rgb(176,16,22);fill-rule:nonzero;"/>
        </g>
        <g id="교표1" serif:id="교표" transform="matrix(3.63885,0,0,3.63885,765.075,529.708)">
            <path d="M0,12.402C-18.337,-34.465 -1.228,-73.194 -1.228,-73.194L-22.343,-96.051L-110.748,-96.051L-131.863,-73.194C-131.863,-73.194 -114.754,-34.465 -133.091,12.402C-136.229,20.427 -142.86,43.285 -130.636,62.981C-116.653,85.511 -83.004,99.943 -66.554,108.453L-66.546,108.241L-66.538,108.453C-50.088,99.943 -16.438,85.511 -2.456,62.981C9.769,43.285 3.14,20.427 0,12.402" style="fill:url(#_Linear1);fill-rule:nonzero;"/>
        </g>
        <g transform="matrix(3.63885,0,0,3.63885,754.016,474.449)">
            <path d="M0,41.78C-0.887,38.323 -1.97,34.779 -3.115,31.026C-7.173,17.727 -12.535,2.646 -12.535,-19.26C-12.535,-31.954 -9.928,-42.091 -6.746,-56.841C-10.304,-60.625 -19.996,-70.593 -23.093,-73.889L-103.952,-73.889C-107.048,-70.593 -116.741,-60.625 -120.297,-56.841C-117.115,-42.091 -114.509,-31.954 -114.509,-19.26C-114.509,2.646 -119.87,17.727 -123.929,31.026C-125.076,34.779 -126.159,38.323 -127.042,41.78C-127.042,41.78 -132.126,61.248 -118.414,78.764C-108.605,91.688 -91.216,101.656 -77.286,108.896C-71.673,111.801 -67.148,113.295 -63.551,115.638L-63.551,115.667C-63.547,115.667 -63.547,115.669 -63.543,115.669C-63.538,115.667 -63.531,115.663 -63.522,115.658C-63.515,115.663 -63.507,115.667 -63.5,115.669C-63.496,115.669 -63.496,115.667 -63.494,115.667L-63.494,115.638C-59.894,113.295 -55.37,111.801 -49.76,108.896C-35.828,101.656 -18.44,91.688 -8.632,78.764C5.084,61.248 0,41.78 0,41.78" style="fill:rgb(176,16,22);fill-rule:nonzero;"/>
        </g>
        <g transform="matrix(0.851581,0,0,0.851581,-4.91574,147.917)">
            <g transform="matrix(180,0,0,180,400.156,506.007)">
                <path d="M0.22,-0.64L0.22,-0.119L0.514,-0.119C0.538,-0.119 0.556,-0.113 0.568,-0.102C0.581,-0.091 0.587,-0.076 0.587,-0.059C0.587,-0.042 0.581,-0.027 0.568,-0.016C0.556,-0.005 0.538,-0 0.514,-0L0.164,-0C0.132,-0 0.11,-0.007 0.096,-0.021C0.082,-0.035 0.075,-0.058 0.075,-0.089L0.075,-0.64C0.075,-0.669 0.082,-0.691 0.095,-0.706C0.108,-0.721 0.125,-0.728 0.147,-0.728C0.169,-0.728 0.186,-0.721 0.2,-0.706C0.213,-0.692 0.22,-0.67 0.22,-0.64Z" style="fill:white;fill-rule:nonzero;"/>
            </g>
            <g transform="matrix(180,0,0,180,508.877,506.007)">
                <path d="M0.084,-0.076L0.084,-0.64C0.084,-0.669 0.091,-0.691 0.104,-0.706C0.117,-0.721 0.135,-0.728 0.156,-0.728C0.178,-0.728 0.195,-0.721 0.209,-0.706C0.222,-0.692 0.229,-0.67 0.229,-0.64L0.229,-0.076C0.229,-0.047 0.222,-0.024 0.209,-0.01C0.195,0.005 0.178,0.012 0.156,0.012C0.135,0.012 0.118,0.005 0.104,-0.01C0.091,-0.025 0.084,-0.047 0.084,-0.076Z" style="fill:white;fill-rule:nonzero;"/>
            </g>
            <g transform="matrix(180,0,0,180,565.215,506.007)">
                <path d="M0.267,-0.641L0.546,-0.219L0.546,-0.645C0.546,-0.673 0.552,-0.693 0.564,-0.707C0.576,-0.721 0.592,-0.728 0.612,-0.728C0.633,-0.728 0.649,-0.721 0.661,-0.707C0.673,-0.693 0.679,-0.673 0.679,-0.645L0.679,-0.082C0.679,-0.019 0.653,0.012 0.601,0.012C0.588,0.012 0.576,0.01 0.566,0.007C0.556,0.003 0.546,-0.003 0.537,-0.011C0.528,-0.019 0.519,-0.029 0.511,-0.04C0.503,-0.051 0.496,-0.062 0.488,-0.073L0.216,-0.49L0.216,-0.071C0.216,-0.043 0.209,-0.023 0.197,-0.009C0.184,0.005 0.168,0.012 0.148,0.012C0.127,0.012 0.111,0.005 0.099,-0.009C0.086,-0.023 0.08,-0.044 0.08,-0.071L0.08,-0.623C0.08,-0.646 0.083,-0.665 0.088,-0.678C0.094,-0.693 0.104,-0.705 0.119,-0.714C0.133,-0.723 0.148,-0.728 0.165,-0.728C0.178,-0.728 0.189,-0.726 0.198,-0.722C0.208,-0.717 0.216,-0.712 0.223,-0.705C0.23,-0.697 0.237,-0.688 0.244,-0.677C0.252,-0.665 0.259,-0.653 0.267,-0.641Z" style="fill:white;fill-rule:nonzero;"/>
            </g>
            <g transform="matrix(180,0,0,180,701.973,506.007)">
                <path d="M0.224,-0.64L0.224,-0.389L0.509,-0.686C0.522,-0.7 0.534,-0.711 0.544,-0.718C0.553,-0.725 0.566,-0.728 0.582,-0.728C0.603,-0.728 0.62,-0.722 0.633,-0.71C0.645,-0.698 0.652,-0.683 0.652,-0.665C0.652,-0.644 0.641,-0.623 0.619,-0.602L0.443,-0.435L0.646,-0.144C0.66,-0.124 0.671,-0.106 0.678,-0.091C0.685,-0.076 0.689,-0.061 0.689,-0.047C0.689,-0.031 0.683,-0.017 0.67,-0.005C0.658,0.006 0.641,0.012 0.619,0.012C0.599,0.012 0.583,0.008 0.57,-0.001C0.557,-0.009 0.546,-0.021 0.538,-0.035C0.529,-0.049 0.521,-0.063 0.514,-0.074L0.343,-0.338L0.224,-0.224L0.224,-0.076C0.224,-0.046 0.217,-0.024 0.204,-0.01C0.19,0.005 0.172,0.012 0.151,0.012C0.139,0.012 0.127,0.009 0.115,0.002C0.104,-0.004 0.095,-0.013 0.089,-0.024C0.084,-0.033 0.082,-0.044 0.081,-0.056C0.08,-0.068 0.079,-0.085 0.079,-0.108L0.079,-0.64C0.079,-0.669 0.086,-0.691 0.098,-0.706C0.111,-0.721 0.129,-0.728 0.151,-0.728C0.173,-0.728 0.19,-0.721 0.204,-0.706C0.217,-0.692 0.224,-0.67 0.224,-0.64Z" style="fill:white;fill-rule:nonzero;"/>
            </g>
        </g>
    </g>
    <defs>
        <linearGradient id="_Linear1" x1="0" y1="0" x2="1" y2="0" gradientUnits="userSpaceOnUse" gradientTransform="matrix(78.738,79.872,-79.872,78.738,-104.134,-40.1396)"><stop offset="0" style="stop-color:rgb(176,16,22);stop-opacity:1"/><stop offset="0.5" style="stop-color:white;stop-opacity:1"/><stop offset="1" style="stop-color:rgb(176,16,22);stop-opacity:1"/></linearGradient>
    </defs>
</svg>
